<?xml version="1.0" encoding="UTF-8" standalone="no"?>
<!-- Created with Inkscape (http://www.inkscape.org/) -->

<svg
   xmlns:dc="http://purl.org/dc/elements/1.1/"
   xmlns:cc="http://creativecommons.org/ns#"
   xmlns:rdf="http://www.w3.org/1999/02/22-rdf-syntax-ns#"
   xmlns:svg="http://www.w3.org/2000/svg"
   xmlns="http://www.w3.org/2000/svg"
   xmlns:sodipodi="http://sodipodi.sourceforge.net/DTD/sodipodi-0.dtd"
   xmlns:inkscape="http://www.inkscape.org/namespaces/inkscape"
   width="210mm"
   height="297mm"
   viewBox="0 0 210 297"
   version="1.1"
   id="svg8"
   inkscape:version="0.92.3 (2405546, 2018-03-11)"
   sodipodi:docname="drawing.svg">
  <defs
     id="defs2" />
  <sodipodi:namedview
     id="base"
     pagecolor="#ffffff"
     bordercolor="#666666"
     borderopacity="1.0"
     inkscape:pageopacity="0.0"
     inkscape:pageshadow="2"
     inkscape:zoom="0.49497475"
     inkscape:cx="1205.3704"
     inkscape:cy="512.58804"
     inkscape:document-units="mm"
     inkscape:current-layer="layer1"
     showgrid="true"
     showguides="false"
     inkscape:guide-bbox="true"
     inkscape:window-width="1920"
     inkscape:window-height="1000"
     inkscape:window-x="-11"
     inkscape:window-y="-11"
     inkscape:window-maximized="1">
    <sodipodi:guide
       position="70.30357,213.17858"
       orientation="1,0"
       id="guide815"
       inkscape:locked="false" />
    <sodipodi:guide
       position="149.48958,196.9256"
       orientation="0.70710678,0.70710678"
       id="guide817"
       inkscape:locked="false" />
    <inkscape:grid
       type="xygrid"
       id="grid819" />
  </sodipodi:namedview>
  <metadata
     id="metadata5">
    <rdf:RDF>
      <cc:Work
         rdf:about="">
        <dc:format>image/svg+xml</dc:format>
        <dc:type
           rdf:resource="http://purl.org/dc/dcmitype/StillImage" />
        <dc:title />
      </cc:Work>
    </rdf:RDF>
  </metadata>
  <g
     inkscape:label="Layer 1"
     inkscape:groupmode="layer"
     id="layer1">
    <rect
       style="opacity:1;fill:#ffffff;fill-opacity:1;stroke:none;stroke-width:0.20872597;stroke-miterlimit:4;stroke-dasharray:none;stroke-opacity:1"
       id="rect1399"
       width="825.5"
       height="508"
       x="-306.91666"
       y="53.583332"
       inkscape:export-xdpi="96"
       inkscape:export-ydpi="96" />
    <path
       style="opacity:1;fill:#f34e4b;fill-opacity:1;stroke:none;stroke-width:0.27143225;stroke-miterlimit:4;stroke-dasharray:none;stroke-opacity:1"
       d="m -224.07877,66.459528 -71.08852,-0.02467 32.5484,62.757372 0.006,-0.009 a 81.160939,51.593749 31.564666 0 1 -1.40869,-43.992499 81.160939,51.593749 31.564666 0 1 39.86953,-18.611438 z"
       id="path886"
       inkscape:connector-curvature="0"
       inkscape:export-xdpi="96"
       inkscape:export-ydpi="96" />
    <path
       style="opacity:1;fill:#f34e4b;fill-opacity:1;stroke:none;stroke-width:0.28738764;stroke-miterlimit:4;stroke-dasharray:none;stroke-opacity:1"
       d="m -168.41834,83.385941 a 81.16094,51.59375 31.564666 0 0 -95.63779,1.774566 81.16094,51.59375 31.564666 0 0 42.14594,86.445033 81.16094,51.59375 31.564666 0 0 0.18912,0.10797 l 6.26064,-0.96022 a 75.375281,47.634792 31.564666 0 1 -3.9978,-2.28746 75.375281,47.634792 31.564666 0 1 -39.28842,-80.043151 75.375281,47.634792 31.564666 0 1 89.15832,-1.131338 75.375281,47.634792 31.564666 0 1 3.12507,2.058788 z"
       id="path821-6"
       inkscape:connector-curvature="0"
       inkscape:export-xdpi="96"
       inkscape:export-ydpi="96" />
    <path
       style="opacity:1;fill:#44485c;fill-opacity:1;stroke:none;stroke-width:0.27143225;stroke-miterlimit:4;stroke-dasharray:none;stroke-opacity:1"
       d="m -295.20177,66.524561 32.54841,62.757379 0.006,-0.009 a 81.160939,51.593749 31.564666 0 1 -1.55723,-43.705313 z"
       id="path886-6"
       inkscape:connector-curvature="0"
       inkscape:export-xdpi="96"
       inkscape:export-ydpi="96" />
    <rect
       style="opacity:1;fill:#f34e4b;fill-opacity:1;stroke:none;stroke-width:0.25394642;stroke-miterlimit:4;stroke-dasharray:none;stroke-opacity:1"
       id="rect879"
       width="2.6458333"
       height="40.216648"
       x="-146.15106"
       y="190.95935"
       transform="rotate(31.564666)"
       inkscape:export-xdpi="96"
       inkscape:export-ydpi="96" />
    <rect
       style="opacity:1;fill:#f34e4b;fill-opacity:1;stroke:none;stroke-width:0.25394642;stroke-miterlimit:4;stroke-dasharray:none;stroke-opacity:1"
       id="rect879-5"
       width="2.6458333"
       height="40.216652"
       x="-134.75511"
       y="190.95935"
       transform="rotate(31.564666)"
       inkscape:export-xdpi="96"
       inkscape:export-ydpi="96" />
    <rect
       style="opacity:1;fill:#44485c;fill-opacity:1;stroke:none;stroke-width:0.31322035;stroke-miterlimit:4;stroke-dasharray:none;stroke-opacity:1"
       id="rect911"
       width="67.855995"
       height="6.6145883"
       x="-121.93204"
       y="206.56976"
       transform="rotate(31.564666)"
       inkscape:export-xdpi="96"
       inkscape:export-ydpi="96" />
    <path
       style="opacity:1;fill:#f34e4b;fill-opacity:1;stroke:none;stroke-width:0.27143225;stroke-miterlimit:4;stroke-dasharray:none;stroke-opacity:1"
       d="m -225.33415,268.48338 71.08851,0.0247 -32.5484,-62.75738 -0.006,0.009 a 81.160939,51.593749 31.56467 0 1 1.4087,43.99221 81.160939,51.593749 31.56467 0 1 -39.86953,18.61144 z"
       id="path886-8"
       inkscape:connector-curvature="0"
       inkscape:export-xdpi="96"
       inkscape:export-ydpi="96" />
    <path
       style="opacity:1;fill:#f34e4b;fill-opacity:1;stroke:none;stroke-width:0.28738764;stroke-miterlimit:4;stroke-dasharray:none;stroke-opacity:1"
       d="m -280.99459,251.55696 a 81.16094,51.59375 31.56467 0 0 95.63779,-1.77456 81.16094,51.59375 31.56467 0 0 -42.14593,-86.44503 81.16094,51.59375 31.56467 0 0 -0.18912,-0.10797 l -6.26065,0.96022 a 75.375281,47.634792 31.56467 0 1 3.99781,2.28746 75.375281,47.634792 31.56467 0 1 39.28841,80.04315 75.375281,47.634792 31.56467 0 1 -89.15832,1.13133 75.375281,47.634792 31.56467 0 1 -3.12507,-2.05878 z"
       id="path821-6-1"
       inkscape:connector-curvature="0"
       inkscape:export-xdpi="96"
       inkscape:export-ydpi="96" />
    <path
       style="opacity:1;fill:#44485c;fill-opacity:1;stroke:none;stroke-width:0.27143225;stroke-miterlimit:4;stroke-dasharray:none;stroke-opacity:1"
       d="m -154.21116,268.41835 -32.54841,-62.75738 -0.006,0.009 a 81.160939,51.593749 31.56467 0 1 1.55724,43.70503 z"
       id="path886-6-9"
       inkscape:connector-curvature="0"
       inkscape:export-xdpi="96"
       inkscape:export-ydpi="96" />
    <rect
       style="opacity:1;fill:#f34e4b;fill-opacity:1;stroke:none;stroke-width:0.25394642;stroke-miterlimit:4;stroke-dasharray:none;stroke-opacity:1"
       id="rect879-2"
       width="2.6458333"
       height="40.216648"
       x="61.441757"
       y="-329.67868"
       transform="rotate(-148.43533)"
       inkscape:export-xdpi="96"
       inkscape:export-ydpi="96" />
    <rect
       style="opacity:1;fill:#f34e4b;fill-opacity:1;stroke:none;stroke-width:0.25394642;stroke-miterlimit:4;stroke-dasharray:none;stroke-opacity:1"
       id="rect879-5-6"
       width="2.6458333"
       height="40.216652"
       x="72.837708"
       y="-329.67868"
       transform="rotate(-148.43533)"
       inkscape:export-xdpi="96"
       inkscape:export-ydpi="96" />
    <rect
       style="opacity:1;fill:#44485c;fill-opacity:1;stroke:none;stroke-width:0.31322035;stroke-miterlimit:4;stroke-dasharray:none;stroke-opacity:1"
       id="rect911-9"
       width="67.855995"
       height="6.6145883"
       x="85.660782"
       y="-314.06827"
       transform="rotate(-148.43533)"
       inkscape:export-xdpi="96"
       inkscape:export-ydpi="96" />
    <path
       style="opacity:1;fill:#3f003f;fill-opacity:1;stroke:none;stroke-width:0.27143225;stroke-miterlimit:4;stroke-dasharray:none;stroke-opacity:1"
       d="m -27.499794,68.493107 -71.08852,-0.0247 32.548407,62.757373 0.0057,-0.009 a 81.16094,51.59375 31.564666 0 1 -1.408698,-43.992503 81.16094,51.59375 31.564666 0 1 39.869531,-18.61144 z"
       id="path886-7"
       inkscape:connector-curvature="0"
       inkscape:export-xdpi="96"
       inkscape:export-ydpi="96" />
    <path
       style="opacity:1;fill:#3f003f;fill-opacity:1;stroke:none;stroke-width:0.28738764;stroke-miterlimit:4;stroke-dasharray:none;stroke-opacity:1"
       d="m 28.160633,85.419517 a 81.16094,51.59375 31.564666 0 0 -95.63778,1.77457 81.16094,51.59375 31.564666 0 0 42.145934,86.445033 81.16094,51.59375 31.564666 0 0 0.189119,0.10797 l 6.260639,-0.96022 a 75.375281,47.634792 31.564666 0 1 -3.997798,-2.28746 75.375281,47.634792 31.564666 0 1 -39.288413,-80.043153 75.375281,47.634792 31.564666 0 1 89.158309,-1.13134 75.375281,47.634792 31.564666 0 1 3.12507,2.05879 z"
       id="path821-6-19"
       inkscape:connector-curvature="0"
       inkscape:export-xdpi="96"
       inkscape:export-ydpi="96" />
    <path
       style="opacity:1;fill:#3a6b74;fill-opacity:1;stroke:none;stroke-width:0.27143225;stroke-miterlimit:4;stroke-dasharray:none;stroke-opacity:1"
       d="m -98.622788,68.558137 32.548411,62.757383 0.0057,-0.009 a 81.16094,51.59375 31.564666 0 1 -1.557232,-43.705313 z"
       id="path886-6-4"
       inkscape:connector-curvature="0"
       inkscape:export-xdpi="96"
       inkscape:export-ydpi="96" />
    <rect
       style="opacity:1;fill:#3f003f;fill-opacity:1;stroke:none;stroke-width:0.25394642;stroke-miterlimit:4;stroke-dasharray:none;stroke-opacity:1"
       id="rect879-57"
       width="2.6458333"
       height="40.216648"
       x="22.408535"
       y="89.790703"
       transform="rotate(31.564666)"
       inkscape:export-xdpi="96"
       inkscape:export-ydpi="96" />
    <rect
       style="opacity:1;fill:#3f003f;fill-opacity:1;stroke:none;stroke-width:0.25394642;stroke-miterlimit:4;stroke-dasharray:none;stroke-opacity:1"
       id="rect879-5-3"
       width="2.6458333"
       height="40.216652"
       x="33.804493"
       y="89.790703"
       transform="rotate(31.564666)"
       inkscape:export-xdpi="96"
       inkscape:export-ydpi="96" />
    <rect
       style="opacity:1;fill:#3a6b74;fill-opacity:1;stroke:none;stroke-width:0.31322035;stroke-miterlimit:4;stroke-dasharray:none;stroke-opacity:1"
       id="rect911-6"
       width="67.855995"
       height="6.6145883"
       x="46.62756"
       y="105.40112"
       transform="rotate(31.564666)"
       inkscape:export-xdpi="96"
       inkscape:export-ydpi="96" />
    <path
       style="opacity:1;fill:#3f003f;fill-opacity:1;stroke:none;stroke-width:0.27143225;stroke-miterlimit:4;stroke-dasharray:none;stroke-opacity:1"
       d="m -28.755173,270.51697 71.088506,0.0247 -32.5484,-62.75738 -0.006,0.009 a 81.16094,51.59375 31.56467 0 1 1.4087,43.99221 81.16094,51.59375 31.56467 0 1 -39.869532,18.61144 z"
       id="path886-8-1"
       inkscape:connector-curvature="0"
       inkscape:export-xdpi="96"
       inkscape:export-ydpi="96" />
    <path
       style="opacity:1;fill:#3f003f;fill-opacity:1;stroke:none;stroke-width:0.28738764;stroke-miterlimit:4;stroke-dasharray:none;stroke-opacity:1"
       d="m -84.415612,253.59054 a 81.16094,51.59375 31.56467 0 0 95.637795,-1.77455 81.16094,51.59375 31.56467 0 0 -42.145936,-86.44504 81.16094,51.59375 31.56467 0 0 -0.189119,-0.10797 l -6.260643,0.96022 a 75.375281,47.634792 31.56467 0 1 3.997802,2.28746 75.375281,47.634792 31.56467 0 1 39.288406,80.04315 75.375281,47.634792 31.56467 0 1 -89.158311,1.13133 75.375281,47.634792 31.56467 0 1 -3.125069,-2.05878 z"
       id="path821-6-1-1"
       inkscape:connector-curvature="0"
       inkscape:export-xdpi="96"
       inkscape:export-ydpi="96" />
    <path
       style="opacity:1;fill:#3a6b74;fill-opacity:1;stroke:none;stroke-width:0.27143225;stroke-miterlimit:4;stroke-dasharray:none;stroke-opacity:1"
       d="m 42.367813,270.45193 -32.54841,-62.75738 -0.006,0.009 a 81.16094,51.59375 31.56467 0 1 1.55724,43.70503 z"
       id="path886-6-9-8"
       inkscape:connector-curvature="0"
       inkscape:export-xdpi="96"
       inkscape:export-ydpi="96" />
    <rect
       style="opacity:1;fill:#3f003f;fill-opacity:1;stroke:none;stroke-width:0.25394642;stroke-miterlimit:4;stroke-dasharray:none;stroke-opacity:1"
       id="rect879-2-8"
       width="2.6458333"
       height="40.216648"
       x="-107.11783"
       y="-228.51006"
       transform="rotate(-148.43533)"
       inkscape:export-xdpi="96"
       inkscape:export-ydpi="96" />
    <rect
       style="opacity:1;fill:#3f003f;fill-opacity:1;stroke:none;stroke-width:0.25394642;stroke-miterlimit:4;stroke-dasharray:none;stroke-opacity:1"
       id="rect879-5-6-3"
       width="2.6458333"
       height="40.216652"
       x="-95.721878"
       y="-228.51006"
       transform="rotate(-148.43533)"
       inkscape:export-xdpi="96"
       inkscape:export-ydpi="96" />
    <rect
       style="opacity:1;fill:#3a6b74;fill-opacity:1;stroke:none;stroke-width:0.31322035;stroke-miterlimit:4;stroke-dasharray:none;stroke-opacity:1"
       id="rect911-9-6"
       width="67.855995"
       height="6.6145883"
       x="-82.898804"
       y="-212.89964"
       transform="rotate(-148.43533)"
       inkscape:export-xdpi="96"
       inkscape:export-ydpi="96" />
    <path
       style="opacity:1;fill:#1b8c11;fill-opacity:1;stroke:none;stroke-width:0.27143225;stroke-miterlimit:4;stroke-dasharray:none;stroke-opacity:1"
       d="m 183.37956,66.45953 -71.08852,-0.0247 32.54841,62.75737 0.006,-0.009 a 81.16094,51.59375 31.564666 0 1 -1.4087,-43.9925 81.16094,51.59375 31.564666 0 1 39.86953,-18.61144 z"
       id="path886-7-8"
       inkscape:connector-curvature="0"
       inkscape:export-xdpi="96"
       inkscape:export-ydpi="96" />
    <path
       style="opacity:1;fill:#1b8c11;fill-opacity:1;stroke:none;stroke-width:0.28738764;stroke-miterlimit:4;stroke-dasharray:none;stroke-opacity:1"
       d="m 239.03999,83.38594 a 81.16094,51.59375 31.564666 0 0 -95.63778,1.77457 81.16094,51.59375 31.564666 0 0 42.14593,86.44503 81.16094,51.59375 31.564666 0 0 0.18912,0.10797 l 6.26064,-0.96022 a 75.375281,47.634792 31.564666 0 1 -3.9978,-2.28746 75.375281,47.634792 31.564666 0 1 -39.28841,-80.04315 75.375281,47.634792 31.564666 0 1 89.15831,-1.13134 75.375281,47.634792 31.564666 0 1 3.12507,2.05879 z"
       id="path821-6-19-4"
       inkscape:connector-curvature="0"
       inkscape:export-xdpi="96"
       inkscape:export-ydpi="96" />
    <path
       style="opacity:1;fill:#42280a;fill-opacity:1;stroke:none;stroke-width:0.27143225;stroke-miterlimit:4;stroke-dasharray:none;stroke-opacity:1"
       d="m 112.25657,66.52456 32.54841,62.75739 0.006,-0.009 a 81.16094,51.59375 31.564666 0 1 -1.55724,-43.70531 z"
       id="path886-6-4-9"
       inkscape:connector-curvature="0"
       inkscape:export-xdpi="96"
       inkscape:export-ydpi="96" />
    <rect
       style="opacity:1;fill:#1b8c11;fill-opacity:1;stroke:none;stroke-width:0.25394642;stroke-miterlimit:4;stroke-dasharray:none;stroke-opacity:1"
       id="rect879-57-3"
       width="2.6458333"
       height="40.216648"
       x="201.02377"
       y="-22.329025"
       transform="rotate(31.564666)"
       inkscape:export-xdpi="96"
       inkscape:export-ydpi="96" />
    <rect
       style="opacity:1;fill:#1b8c11;fill-opacity:1;stroke:none;stroke-width:0.25394642;stroke-miterlimit:4;stroke-dasharray:none;stroke-opacity:1"
       id="rect879-5-3-4"
       width="2.6458333"
       height="40.216652"
       x="212.41974"
       y="-22.329025"
       transform="rotate(31.564666)"
       inkscape:export-xdpi="96"
       inkscape:export-ydpi="96" />
    <rect
       style="opacity:1;fill:#42280a;fill-opacity:1;stroke:none;stroke-width:0.31322035;stroke-miterlimit:4;stroke-dasharray:none;stroke-opacity:1"
       id="rect911-6-3"
       width="67.855995"
       height="6.6145883"
       x="225.2428"
       y="-6.7186122"
       transform="rotate(31.564666)"
       inkscape:export-xdpi="96"
       inkscape:export-ydpi="96" />
    <path
       style="opacity:1;fill:#1b8c11;fill-opacity:1;stroke:none;stroke-width:0.27143225;stroke-miterlimit:4;stroke-dasharray:none;stroke-opacity:1"
       d="m 182.12418,268.4834 71.08851,0.0247 -32.5484,-62.75738 -0.006,0.009 a 81.16094,51.59375 31.56467 0 1 1.4087,43.99221 81.16094,51.59375 31.56467 0 1 -39.86953,18.61144 z"
       id="path886-8-1-6"
       inkscape:connector-curvature="0"
       inkscape:export-xdpi="96"
       inkscape:export-ydpi="96" />
    <path
       style="opacity:1;fill:#1b8c11;fill-opacity:1;stroke:none;stroke-width:0.28738764;stroke-miterlimit:4;stroke-dasharray:none;stroke-opacity:1"
       d="m 126.46375,251.55696 a 81.16094,51.59375 31.56467 0 0 95.63779,-1.77455 81.16094,51.59375 31.56467 0 0 -42.14594,-86.44503 81.16094,51.59375 31.56467 0 0 -0.18911,-0.10797 l -6.26065,0.96022 a 75.375281,47.634792 31.56467 0 1 3.9978,2.28746 75.375281,47.634792 31.56467 0 1 39.28841,80.04314 75.375281,47.634792 31.56467 0 1 -89.15831,1.13133 75.375281,47.634792 31.56467 0 1 -3.12507,-2.05877 z"
       id="path821-6-1-1-2"
       inkscape:connector-curvature="0"
       inkscape:export-xdpi="96"
       inkscape:export-ydpi="96" />
    <path
       style="opacity:1;fill:#42280a;fill-opacity:1;stroke:none;stroke-width:0.27143225;stroke-miterlimit:4;stroke-dasharray:none;stroke-opacity:1"
       d="m 253.24717,268.41836 -32.54841,-62.75739 -0.006,0.009 A 81.16094,51.59375 31.56467 0 1 222.25,249.375 Z"
       id="path886-6-9-8-1"
       inkscape:connector-curvature="0"
       inkscape:export-xdpi="96"
       inkscape:export-ydpi="96" />
    <rect
       style="opacity:1;fill:#1b8c11;fill-opacity:1;stroke:none;stroke-width:0.25394642;stroke-miterlimit:4;stroke-dasharray:none;stroke-opacity:1"
       id="rect879-2-8-4"
       width="2.6458333"
       height="40.216648"
       x="-285.73306"
       y="-116.39032"
       transform="rotate(-148.43533)"
       inkscape:export-xdpi="96"
       inkscape:export-ydpi="96" />
    <rect
       style="opacity:1;fill:#1b8c11;fill-opacity:1;stroke:none;stroke-width:0.25394642;stroke-miterlimit:4;stroke-dasharray:none;stroke-opacity:1"
       id="rect879-5-6-3-4"
       width="2.6458333"
       height="40.216652"
       x="-274.3371"
       y="-116.39032"
       transform="rotate(-148.43533)"
       inkscape:export-xdpi="96"
       inkscape:export-ydpi="96" />
    <rect
       style="opacity:1;fill:#42280a;fill-opacity:1;stroke:none;stroke-width:0.31322035;stroke-miterlimit:4;stroke-dasharray:none;stroke-opacity:1"
       id="rect911-9-6-1"
       width="67.855995"
       height="6.6145883"
       x="-261.51404"
       y="-100.77991"
       transform="rotate(-148.43533)"
       inkscape:export-xdpi="96"
       inkscape:export-ydpi="96" />
    <path
       style="opacity:1;fill:#223d79;fill-opacity:1;stroke:none;stroke-width:0.27143225;stroke-miterlimit:4;stroke-dasharray:none;stroke-opacity:1"
       d="m 373.50082,71.51689 -71.08852,-0.0247 32.54841,62.75737 0.006,-0.009 a 81.16094,51.59375 31.564666 0 1 -1.4087,-43.9925 81.16094,51.59375 31.564666 0 1 39.86953,-18.61144 z"
       id="path886-7-8-4"
       inkscape:connector-curvature="0"
       inkscape:export-xdpi="96"
       inkscape:export-ydpi="96" />
    <path
       style="opacity:1;fill:#223d79;fill-opacity:1;stroke:none;stroke-width:0.28738764;stroke-miterlimit:4;stroke-dasharray:none;stroke-opacity:1"
       d="m 429.16125,88.4433 a 81.16094,51.59375 31.564666 0 0 -95.63778,1.77457 81.16094,51.59375 31.564666 0 0 42.14593,86.44503 81.16094,51.59375 31.564666 0 0 0.18912,0.10797 l 6.26064,-0.96022 a 75.375281,47.634792 31.564666 0 1 -3.9978,-2.28746 75.375281,47.634792 31.564666 0 1 -39.28841,-80.04315 75.375281,47.634792 31.564666 0 1 89.15831,-1.13134 75.375281,47.634792 31.564666 0 1 3.12507,2.05879 z"
       id="path821-6-19-4-3"
       inkscape:connector-curvature="0"
       inkscape:export-xdpi="96"
       inkscape:export-ydpi="96" />
    <path
       style="opacity:1;fill:#d88c29;fill-opacity:1;stroke:none;stroke-width:0.27143225;stroke-miterlimit:4;stroke-dasharray:none;stroke-opacity:1"
       d="m 302.37783,71.58192 32.54841,62.75739 0.006,-0.009 A 81.16094,51.59375 31.564666 0 1 333.375,90.625 Z"
       id="path886-6-4-9-5"
       inkscape:connector-curvature="0"
       inkscape:export-xdpi="96"
       inkscape:export-ydpi="96" />
    <rect
       style="opacity:1;fill:#223d79;fill-opacity:1;stroke:none;stroke-width:0.25394642;stroke-miterlimit:4;stroke-dasharray:none;stroke-opacity:1"
       id="rect879-57-3-3"
       width="2.6458333"
       height="40.216648"
       x="365.66391"
       y="-117.54088"
       transform="rotate(31.564666)"
       inkscape:export-xdpi="96"
       inkscape:export-ydpi="96" />
    <rect
       style="opacity:1;fill:#223d79;fill-opacity:1;stroke:none;stroke-width:0.25394642;stroke-miterlimit:4;stroke-dasharray:none;stroke-opacity:1"
       id="rect879-5-3-4-9"
       width="2.6458333"
       height="40.216652"
       x="377.05988"
       y="-117.54088"
       transform="rotate(31.564666)"
       inkscape:export-xdpi="96"
       inkscape:export-ydpi="96" />
    <rect
       style="opacity:1;fill:#d88c29;fill-opacity:1;stroke:none;stroke-width:0.31322035;stroke-miterlimit:4;stroke-dasharray:none;stroke-opacity:1"
       id="rect911-6-3-3"
       width="67.855995"
       height="6.6145883"
       x="389.88293"
       y="-101.93047"
       transform="rotate(31.564666)"
       inkscape:export-xdpi="96"
       inkscape:export-ydpi="96" />
    <path
       style="opacity:1;fill:#223d79;fill-opacity:1;stroke:none;stroke-width:0.27143225;stroke-miterlimit:4;stroke-dasharray:none;stroke-opacity:1"
       d="m 372.24544,273.54076 71.08851,0.0247 -32.5484,-62.75738 -0.006,0.009 a 81.16094,51.59375 31.56467 0 1 1.4087,43.99221 81.16094,51.59375 31.56467 0 1 -39.86954,18.61144 z"
       id="path886-8-1-6-6"
       inkscape:connector-curvature="0"
       inkscape:export-xdpi="96"
       inkscape:export-ydpi="96" />
    <path
       style="opacity:1;fill:#223d79;fill-opacity:1;stroke:none;stroke-width:0.28738764;stroke-miterlimit:4;stroke-dasharray:none;stroke-opacity:1"
       d="m 316.58501,256.61432 a 81.16094,51.59375 31.56467 0 0 95.63779,-1.77455 81.16094,51.59375 31.56467 0 0 -42.14594,-86.44503 81.16094,51.59375 31.56467 0 0 -0.18911,-0.10797 l -6.26065,0.96022 a 75.375281,47.634792 31.56467 0 1 3.9978,2.28746 75.375281,47.634792 31.56467 0 1 39.28841,80.04314 75.375281,47.634792 31.56467 0 1 -89.15831,1.13133 75.375281,47.634792 31.56467 0 1 -3.12507,-2.05877 z"
       id="path821-6-1-1-2-5"
       inkscape:connector-curvature="0"
       inkscape:export-xdpi="96"
       inkscape:export-ydpi="96" />
    <path
       style="opacity:1;fill:#d88c29;fill-opacity:1;stroke:none;stroke-width:0.27143225;stroke-miterlimit:4;stroke-dasharray:none;stroke-opacity:1"
       d="m 443.36843,273.47572 -32.54841,-62.75739 -0.006,0.009 a 81.16094,51.59375 31.56467 0 1 1.55724,43.70503 z"
       id="path886-6-9-8-1-5"
       inkscape:connector-curvature="0"
       inkscape:export-xdpi="96"
       inkscape:export-ydpi="96" />
    <rect
       style="opacity:1;fill:#223d79;fill-opacity:1;stroke:none;stroke-width:0.25394642;stroke-miterlimit:4;stroke-dasharray:none;stroke-opacity:1"
       id="rect879-2-8-4-1"
       width="2.6458333"
       height="40.216648"
       x="-450.3732"
       y="-21.17845"
       transform="rotate(-148.43533)"
       inkscape:export-xdpi="96"
       inkscape:export-ydpi="96" />
    <rect
       style="opacity:1;fill:#223d79;fill-opacity:1;stroke:none;stroke-width:0.25394642;stroke-miterlimit:4;stroke-dasharray:none;stroke-opacity:1"
       id="rect879-5-6-3-4-1"
       width="2.6458333"
       height="40.216652"
       x="-438.97723"
       y="-21.17845"
       transform="rotate(-148.43533)"
       inkscape:export-xdpi="96"
       inkscape:export-ydpi="96" />
    <rect
       style="opacity:1;fill:#d88c29;fill-opacity:1;stroke:none;stroke-width:0.31322035;stroke-miterlimit:4;stroke-dasharray:none;stroke-opacity:1"
       id="rect911-9-6-1-3"
       width="67.855995"
       height="6.6145883"
       x="-426.15417"
       y="-5.5680375"
       transform="rotate(-148.43533)"
       inkscape:export-xdpi="96"
       inkscape:export-ydpi="96" />
    <path
       style="opacity:1;fill:#4d0c27;fill-opacity:1;stroke:none;stroke-width:0.27143225;stroke-miterlimit:4;stroke-dasharray:none;stroke-opacity:1"
       d="m -203.29086,320.22522 -71.08852,-0.0247 32.54841,62.75737 0.006,-0.009 a 81.16094,51.59375 31.564666 0 1 -1.40869,-43.9925 81.16094,51.59375 31.564666 0 1 39.86953,-18.61144 z"
       id="path886-7-8-4-3"
       inkscape:connector-curvature="0"
       inkscape:export-xdpi="96"
       inkscape:export-ydpi="96" />
    <path
       style="opacity:1;fill:#4d0c27;fill-opacity:1;stroke:none;stroke-width:0.28738764;stroke-miterlimit:4;stroke-dasharray:none;stroke-opacity:1"
       d="m -147.63043,337.15163 a 81.16094,51.59375 31.564666 0 0 -95.63778,1.77457 81.16094,51.59375 31.564666 0 0 42.14594,86.44503 81.16094,51.59375 31.564666 0 0 0.18911,0.10797 l 6.26065,-0.96022 a 75.375281,47.634792 31.564666 0 1 -3.9978,-2.28746 75.375281,47.634792 31.564666 0 1 -39.28842,-80.04315 75.375281,47.634792 31.564666 0 1 89.15831,-1.13134 75.375281,47.634792 31.564666 0 1 3.12507,2.05879 z"
       id="path821-6-19-4-3-5"
       inkscape:connector-curvature="0"
       inkscape:export-xdpi="96"
       inkscape:export-ydpi="96" />
    <path
       style="opacity:1;fill:#db6e23;fill-opacity:1;stroke:none;stroke-width:0.27143225;stroke-miterlimit:4;stroke-dasharray:none;stroke-opacity:1"
       d="m -274.41385,320.29025 32.54841,62.75739 0.006,-0.009 a 81.16094,51.59375 31.564666 0 1 -1.55723,-43.70531 z"
       id="path886-6-4-9-5-6"
       inkscape:connector-curvature="0"
       inkscape:export-xdpi="96"
       inkscape:export-ydpi="96" />
    <rect
       style="opacity:1;fill:#4d0c27;fill-opacity:1;stroke:none;stroke-width:0.25394642;stroke-miterlimit:4;stroke-dasharray:none;stroke-opacity:1"
       id="rect879-57-3-3-7"
       width="2.6458333"
       height="40.216648"
       x="4.397614"
       y="396.29874"
       transform="rotate(31.564666)"
       inkscape:export-xdpi="96"
       inkscape:export-ydpi="96" />
    <rect
       style="opacity:1;fill:#4d0c27;fill-opacity:1;stroke:none;stroke-width:0.25394642;stroke-miterlimit:4;stroke-dasharray:none;stroke-opacity:1"
       id="rect879-5-3-4-9-3"
       width="2.6458333"
       height="40.216652"
       x="15.793549"
       y="396.29874"
       transform="rotate(31.564666)"
       inkscape:export-xdpi="96"
       inkscape:export-ydpi="96" />
    <rect
       style="opacity:1;fill:#db6e23;fill-opacity:1;stroke:none;stroke-width:0.31322035;stroke-miterlimit:4;stroke-dasharray:none;stroke-opacity:1"
       id="rect911-6-3-3-1"
       width="67.855995"
       height="6.6145883"
       x="28.616608"
       y="411.90912"
       transform="rotate(31.564666)"
       inkscape:export-xdpi="96"
       inkscape:export-ydpi="96" />
    <path
       style="opacity:1;fill:#4d0c27;fill-opacity:1;stroke:none;stroke-width:0.27143225;stroke-miterlimit:4;stroke-dasharray:none;stroke-opacity:1"
       d="m -204.54623,522.24909 71.0885,0.0247 -32.5484,-62.75738 -0.006,0.009 a 81.16094,51.59375 31.56467 0 1 1.4087,43.99221 81.16094,51.59375 31.56467 0 1 -39.86954,18.61144 z"
       id="path886-8-1-6-6-1"
       inkscape:connector-curvature="0"
       inkscape:export-xdpi="96"
       inkscape:export-ydpi="96" />
    <path
       style="opacity:1;fill:#4d0c27;fill-opacity:1;stroke:none;stroke-width:0.28738764;stroke-miterlimit:4;stroke-dasharray:none;stroke-opacity:1"
       d="m -260.20667,505.32265 a 81.16094,51.59375 31.56467 0 0 95.63779,-1.77455 81.16094,51.59375 31.56467 0 0 -42.14593,-86.44503 81.16094,51.59375 31.56467 0 0 -0.18912,-0.10797 l -6.26065,0.96022 a 75.375281,47.634792 31.56467 0 1 3.99781,2.28746 75.375281,47.634792 31.56467 0 1 39.2884,80.04314 75.375281,47.634792 31.56467 0 1 -89.15831,1.13133 75.375281,47.634792 31.56467 0 1 -3.12507,-2.05877 z"
       id="path821-6-1-1-2-5-3"
       inkscape:connector-curvature="0"
       inkscape:export-xdpi="96"
       inkscape:export-ydpi="96" />
    <path
       style="opacity:1;fill:#db6e23;fill-opacity:1;stroke:none;stroke-width:0.27143225;stroke-miterlimit:4;stroke-dasharray:none;stroke-opacity:1"
       d="m -133.42325,522.18405 -32.54841,-62.75739 -0.006,0.009 a 81.16094,51.59375 31.56467 0 1 1.55724,43.70503 z"
       id="path886-6-9-8-1-5-0"
       inkscape:connector-curvature="0"
       inkscape:export-xdpi="96"
       inkscape:export-ydpi="96" />
    <rect
       style="opacity:1;fill:#4d0c27;fill-opacity:1;stroke:none;stroke-width:0.25394642;stroke-miterlimit:4;stroke-dasharray:none;stroke-opacity:1"
       id="rect879-2-8-4-1-9"
       width="2.6458333"
       height="40.216648"
       x="-89.106934"
       y="-535.01807"
       transform="rotate(-148.43533)"
       inkscape:export-xdpi="96"
       inkscape:export-ydpi="96" />
    <rect
       style="opacity:1;fill:#4d0c27;fill-opacity:1;stroke:none;stroke-width:0.25394642;stroke-miterlimit:4;stroke-dasharray:none;stroke-opacity:1"
       id="rect879-5-6-3-4-1-4"
       width="2.6458333"
       height="40.216652"
       x="-77.710999"
       y="-535.01807"
       transform="rotate(-148.43533)"
       inkscape:export-xdpi="96"
       inkscape:export-ydpi="96" />
    <rect
       style="opacity:1;fill:#db6e23;fill-opacity:1;stroke:none;stroke-width:0.31322035;stroke-miterlimit:4;stroke-dasharray:none;stroke-opacity:1"
       id="rect911-9-6-1-3-2"
       width="67.855995"
       height="6.6145883"
       x="-64.887939"
       y="-519.40765"
       transform="rotate(-148.43533)"
       inkscape:export-xdpi="96"
       inkscape:export-ydpi="96" />
    <path
       style="opacity:1;fill:#4a4a4a;fill-opacity:1;stroke:none;stroke-width:0.27143225;stroke-miterlimit:4;stroke-dasharray:none;stroke-opacity:1"
       d="m -5.2183957,323.3386 -71.0885183,-0.0247 32.548407,62.75737 0.006,-0.009 a 81.16094,51.59375 31.564666 0 1 -1.408691,-43.9925 81.16094,51.59375 31.564666 0 1 39.8695313,-18.61144 z"
       id="path886-7-8-4-3-4"
       inkscape:connector-curvature="0"
       inkscape:export-xdpi="96"
       inkscape:export-ydpi="96" />
    <path
       style="opacity:1;fill:#4a4a4a;fill-opacity:1;stroke:none;stroke-width:0.28738764;stroke-miterlimit:4;stroke-dasharray:none;stroke-opacity:1"
       d="m 50.442038,340.26501 a 81.16094,51.59375 31.564666 0 0 -95.637785,1.77457 81.16094,51.59375 31.564666 0 0 42.1459393,86.44503 81.16094,51.59375 31.564666 0 0 0.189111,0.10797 l 6.26065,-0.96022 a 75.375281,47.634792 31.564666 0 1 -3.99780097,-2.28746 75.375281,47.634792 31.564666 0 1 -39.28841833,-80.04315 75.375281,47.634792 31.564666 0 1 89.158314,-1.13134 75.375281,47.634792 31.564666 0 1 3.12507,2.05879 z"
       id="path821-6-19-4-3-5-5"
       inkscape:connector-curvature="0"
       inkscape:export-xdpi="96"
       inkscape:export-ydpi="96" />
    <path
       style="opacity:1;fill:#0a9e9e;fill-opacity:1;stroke:none;stroke-width:0.27143225;stroke-miterlimit:4;stroke-dasharray:none;stroke-opacity:1"
       d="m -76.341384,323.40363 32.548407,62.75739 0.006,-0.009 a 81.16094,51.59375 31.564666 0 1 -1.557231,-43.70531 z"
       id="path886-6-4-9-5-6-3"
       inkscape:connector-curvature="0"
       inkscape:export-xdpi="96"
       inkscape:export-ydpi="96" />
    <rect
       style="opacity:1;fill:#4a4a4a;fill-opacity:1;stroke:none;stroke-width:0.25394642;stroke-miterlimit:4;stroke-dasharray:none;stroke-opacity:1"
       id="rect879-57-3-3-7-4"
       width="2.6458333"
       height="40.216648"
       x="174.79497"
       y="295.26837"
       transform="rotate(31.564666)"
       inkscape:export-xdpi="96"
       inkscape:export-ydpi="96" />
    <rect
       style="opacity:1;fill:#4a4a4a;fill-opacity:1;stroke:none;stroke-width:0.25394642;stroke-miterlimit:4;stroke-dasharray:none;stroke-opacity:1"
       id="rect879-5-3-4-9-3-5"
       width="2.6458333"
       height="40.216652"
       x="186.19089"
       y="295.26837"
       transform="rotate(31.564666)"
       inkscape:export-xdpi="96"
       inkscape:export-ydpi="96" />
    <rect
       style="opacity:1;fill:#0a9e9e;fill-opacity:1;stroke:none;stroke-width:0.31322035;stroke-miterlimit:4;stroke-dasharray:none;stroke-opacity:1"
       id="rect911-6-3-3-1-6"
       width="67.855995"
       height="6.6145883"
       x="199.01396"
       y="310.87875"
       transform="rotate(31.564666)"
       inkscape:export-xdpi="96"
       inkscape:export-ydpi="96" />
    <path
       style="opacity:1;fill:#4a4a4a;fill-opacity:1;stroke:none;stroke-width:0.27143225;stroke-miterlimit:4;stroke-dasharray:none;stroke-opacity:1"
       d="m -6.4737667,525.36247 71.0885037,0.0247 -32.5484,-62.75738 -0.006,0.009 a 81.16094,51.59375 31.56467 0 1 1.4087,43.99221 81.16094,51.59375 31.56467 0 1 -39.8695417,18.61144 z"
       id="path886-8-1-6-6-1-0"
       inkscape:connector-curvature="0"
       inkscape:export-xdpi="96"
       inkscape:export-ydpi="96" />
    <path
       style="opacity:1;fill:#4a4a4a;fill-opacity:1;stroke:none;stroke-width:0.28738764;stroke-miterlimit:4;stroke-dasharray:none;stroke-opacity:1"
       d="m -62.134204,508.43603 a 81.16094,51.59375 31.56467 0 0 95.637791,-1.77455 81.16094,51.59375 31.56467 0 0 -42.1459347,-86.44503 81.16094,51.59375 31.56467 0 0 -0.189119,-0.10797 l -6.2606503,0.96022 a 75.375281,47.634792 31.56467 0 1 3.997809,2.28746 75.375281,47.634792 31.56467 0 1 39.288405,80.04314 75.375281,47.634792 31.56467 0 1 -89.158311,1.13133 75.375281,47.634792 31.56467 0 1 -3.12507,-2.05877 z"
       id="path821-6-1-1-2-5-3-4"
       inkscape:connector-curvature="0"
       inkscape:export-xdpi="96"
       inkscape:export-ydpi="96" />
    <path
       style="opacity:1;fill:#0a9e9e;fill-opacity:1;stroke:none;stroke-width:0.27143225;stroke-miterlimit:4;stroke-dasharray:none;stroke-opacity:1"
       d="m 64.649217,525.29743 -32.54841,-62.75739 -0.006,0.009 a 81.16094,51.59375 31.56467 0 1 1.55724,43.70503 z"
       id="path886-6-9-8-1-5-0-6"
       inkscape:connector-curvature="0"
       inkscape:export-xdpi="96"
       inkscape:export-ydpi="96" />
    <rect
       style="opacity:1;fill:#4a4a4a;fill-opacity:1;stroke:none;stroke-width:0.25394642;stroke-miterlimit:4;stroke-dasharray:none;stroke-opacity:1"
       id="rect879-2-8-4-1-9-7"
       width="2.6458333"
       height="40.216648"
       x="-259.50427"
       y="-433.98767"
       transform="rotate(-148.43533)"
       inkscape:export-xdpi="96"
       inkscape:export-ydpi="96" />
    <rect
       style="opacity:1;fill:#4a4a4a;fill-opacity:1;stroke:none;stroke-width:0.25394642;stroke-miterlimit:4;stroke-dasharray:none;stroke-opacity:1"
       id="rect879-5-6-3-4-1-4-0"
       width="2.6458333"
       height="40.216652"
       x="-248.10835"
       y="-433.98767"
       transform="rotate(-148.43533)"
       inkscape:export-xdpi="96"
       inkscape:export-ydpi="96" />
    <rect
       style="opacity:1;fill:#0a9e9e;fill-opacity:1;stroke:none;stroke-width:0.31322035;stroke-miterlimit:4;stroke-dasharray:none;stroke-opacity:1"
       id="rect911-9-6-1-3-2-4"
       width="67.855995"
       height="6.6145883"
       x="-235.28529"
       y="-418.37726"
       transform="rotate(-148.43533)"
       inkscape:export-xdpi="96"
       inkscape:export-ydpi="96" />
    <path
       style="opacity:1;fill:#57552c;fill-opacity:1;stroke:none;stroke-width:0.27143225;stroke-miterlimit:4;stroke-dasharray:none;stroke-opacity:1"
       d="m 201.08333,328.75 -71.08852,-0.0247 32.54841,62.75737 0.006,-0.009 a 81.16094,51.59375 31.564666 0 1 -1.40869,-43.9925 81.16094,51.59375 31.564666 0 1 39.86953,-18.61144 z"
       id="path886-7-8-4-3-49"
       inkscape:connector-curvature="0"
       inkscape:export-xdpi="96"
       inkscape:export-ydpi="96" />
    <path
       style="opacity:1;fill:#57552c;fill-opacity:1;stroke:none;stroke-width:0.28738764;stroke-miterlimit:4;stroke-dasharray:none;stroke-opacity:1"
       d="m 256.74377,345.67641 a 81.16094,51.59375 31.564666 0 0 -95.63779,1.77457 81.16094,51.59375 31.564666 0 0 42.14594,86.44503 81.16094,51.59375 31.564666 0 0 0.18911,0.10797 l 6.26065,-0.96022 a 75.375281,47.634792 31.564666 0 1 -3.9978,-2.28746 75.375281,47.634792 31.564666 0 1 -39.28842,-80.04315 75.375281,47.634792 31.564666 0 1 89.15832,-1.13134 75.375281,47.634792 31.564666 0 1 3.12507,2.05879 z"
       id="path821-6-19-4-3-5-7"
       inkscape:connector-curvature="0"
       inkscape:export-xdpi="96"
       inkscape:export-ydpi="96" />
    <path
       style="opacity:1;fill:#241e1a;fill-opacity:1;stroke:none;stroke-width:0.27143225;stroke-miterlimit:4;stroke-dasharray:none;stroke-opacity:1"
       d="m 129.96034,328.81503 32.54841,62.75739 0.006,-0.009 a 81.16094,51.59375 31.564666 0 1 -1.55723,-43.70531 z"
       id="path886-6-4-9-5-6-7"
       inkscape:connector-curvature="0"
       inkscape:export-xdpi="96"
       inkscape:export-ydpi="96" />
    <rect
       style="opacity:1;fill:#57552c;fill-opacity:1;stroke:none;stroke-width:0.25394642;stroke-miterlimit:4;stroke-dasharray:none;stroke-opacity:1"
       id="rect879-57-3-3-7-5"
       width="2.6458333"
       height="40.216648"
       x="353.40701"
       y="191.88832"
       transform="rotate(31.564666)"
       inkscape:export-xdpi="96"
       inkscape:export-ydpi="96" />
    <rect
       style="opacity:1;fill:#57552c;fill-opacity:1;stroke:none;stroke-width:0.25394642;stroke-miterlimit:4;stroke-dasharray:none;stroke-opacity:1"
       id="rect879-5-3-4-9-3-6"
       width="2.6458333"
       height="40.216652"
       x="364.80292"
       y="191.88832"
       transform="rotate(31.564666)"
       inkscape:export-xdpi="96"
       inkscape:export-ydpi="96" />
    <rect
       style="opacity:1;fill:#241e1a;fill-opacity:1;stroke:none;stroke-width:0.31322035;stroke-miterlimit:4;stroke-dasharray:none;stroke-opacity:1"
       id="rect911-6-3-3-1-2"
       width="67.855995"
       height="6.6145883"
       x="377.62601"
       y="207.49873"
       transform="rotate(31.564666)"
       inkscape:export-xdpi="96"
       inkscape:export-ydpi="96" />
    <path
       style="opacity:1;fill:#57552c;fill-opacity:1;stroke:none;stroke-width:0.27143225;stroke-miterlimit:4;stroke-dasharray:none;stroke-opacity:1"
       d="m 199.82796,530.77387 71.08851,0.0247 -32.5484,-62.75738 -0.006,0.009 a 81.16094,51.59375 31.56467 0 1 1.4087,43.99221 81.16094,51.59375 31.56467 0 1 -39.86955,18.61144 z"
       id="path886-8-1-6-6-1-1"
       inkscape:connector-curvature="0"
       inkscape:export-xdpi="96"
       inkscape:export-ydpi="96" />
    <path
       style="opacity:1;fill:#57552c;fill-opacity:1;stroke:none;stroke-width:0.28738764;stroke-miterlimit:4;stroke-dasharray:none;stroke-opacity:1"
       d="m 144.16752,513.84743 a 81.16094,51.59375 31.56467 0 0 95.6378,-1.77455 81.16094,51.59375 31.56467 0 0 -42.14594,-86.44503 81.16094,51.59375 31.56467 0 0 -0.18912,-0.10796 l -6.26065,0.96021 a 75.375281,47.634792 31.56467 0 1 3.99781,2.28746 75.375281,47.634792 31.56467 0 1 39.28841,80.04314 75.375281,47.634792 31.56467 0 1 -89.15832,1.13133 75.375281,47.634792 31.56467 0 1 -3.12507,-2.05877 z"
       id="path821-6-1-1-2-5-3-8"
       inkscape:connector-curvature="0"
       inkscape:export-xdpi="96"
       inkscape:export-ydpi="96" />
    <path
       style="opacity:1;fill:#241e1a;fill-opacity:1;stroke:none;stroke-width:0.27143225;stroke-miterlimit:4;stroke-dasharray:none;stroke-opacity:1"
       d="m 270.95095,530.70883 -32.54841,-62.75739 -0.006,0.009 a 81.16094,51.59375 31.56467 0 1 1.55724,43.70503 z"
       id="path886-6-9-8-1-5-0-8"
       inkscape:connector-curvature="0"
       inkscape:export-xdpi="96"
       inkscape:export-ydpi="96" />
    <rect
       style="opacity:1;fill:#57552c;fill-opacity:1;stroke:none;stroke-width:0.25394642;stroke-miterlimit:4;stroke-dasharray:none;stroke-opacity:1"
       id="rect879-2-8-4-1-9-2"
       width="2.6458333"
       height="40.216648"
       x="-438.1163"
       y="-330.60767"
       transform="rotate(-148.43533)"
       inkscape:export-xdpi="96"
       inkscape:export-ydpi="96" />
    <rect
       style="opacity:1;fill:#57552c;fill-opacity:1;stroke:none;stroke-width:0.25394642;stroke-miterlimit:4;stroke-dasharray:none;stroke-opacity:1"
       id="rect879-5-6-3-4-1-4-5"
       width="2.6458333"
       height="40.216652"
       x="-426.72037"
       y="-330.60767"
       transform="rotate(-148.43533)"
       inkscape:export-xdpi="96"
       inkscape:export-ydpi="96" />
    <rect
       style="opacity:1;fill:#241e1a;fill-opacity:1;stroke:none;stroke-width:0.31322035;stroke-miterlimit:4;stroke-dasharray:none;stroke-opacity:1"
       id="rect911-9-6-1-3-2-8"
       width="67.855995"
       height="6.6145883"
       x="-413.89731"
       y="-314.99725"
       transform="rotate(-148.43533)"
       inkscape:export-xdpi="96"
       inkscape:export-ydpi="96" />
    <path
       style="opacity:1;fill:#710f0f;fill-opacity:1;stroke:none;stroke-width:0.27143225;stroke-miterlimit:4;stroke-dasharray:none;stroke-opacity:1"
       d="m 405.62956,325.7512 -71.08852,-0.0247 32.54841,62.75737 0.006,-0.009 a 81.16094,51.59375 31.564666 0 1 -1.4087,-43.9925 81.16094,51.59375 31.564666 0 1 39.86953,-18.61144 z"
       id="path886-7-8-4-5"
       inkscape:connector-curvature="0"
       inkscape:export-xdpi="96"
       inkscape:export-ydpi="96" />
    <path
       style="opacity:1;fill:#710f0f;fill-opacity:1;stroke:none;stroke-width:0.28738764;stroke-miterlimit:4;stroke-dasharray:none;stroke-opacity:1"
       d="m 461.28999,342.67761 a 81.16094,51.59375 31.564666 0 0 -95.63778,1.77457 81.16094,51.59375 31.564666 0 0 42.14593,86.44503 81.16094,51.59375 31.564666 0 0 0.18912,0.10797 l 6.26064,-0.96022 a 75.375281,47.634792 31.564666 0 1 -3.9978,-2.28746 75.375281,47.634792 31.564666 0 1 -39.28841,-80.04315 75.375281,47.634792 31.564666 0 1 89.15831,-1.13134 75.375281,47.634792 31.564666 0 1 3.12507,2.05879 z"
       id="path821-6-19-4-3-8"
       inkscape:connector-curvature="0"
       inkscape:export-xdpi="96"
       inkscape:export-ydpi="96" />
    <path
       style="opacity:1;fill:#000000;fill-opacity:1;stroke:none;stroke-width:0.27143225;stroke-miterlimit:4;stroke-dasharray:none;stroke-opacity:1"
       d="m 334.50657,325.81623 32.54841,62.75739 0.006,-0.009 a 81.16094,51.59375 31.564666 0 1 -1.55724,-43.70531 z"
       id="path886-6-4-9-5-0"
       inkscape:connector-curvature="0"
       inkscape:export-xdpi="96"
       inkscape:export-ydpi="96" />
    <rect
       style="opacity:1;fill:#710f0f;fill-opacity:1;stroke:none;stroke-width:0.25394642;stroke-miterlimit:4;stroke-dasharray:none;stroke-opacity:1"
       id="rect879-57-3-3-9"
       width="2.6458333"
       height="40.216648"
       x="526.12079"
       y="82.261322"
       transform="rotate(31.564666)"
       inkscape:export-xdpi="96"
       inkscape:export-ydpi="96" />
    <rect
       style="opacity:1;fill:#710f0f;fill-opacity:1;stroke:none;stroke-width:0.25394642;stroke-miterlimit:4;stroke-dasharray:none;stroke-opacity:1"
       id="rect879-5-3-4-9-0"
       width="2.6458333"
       height="40.216652"
       x="537.51678"
       y="82.261322"
       transform="rotate(31.564666)"
       inkscape:export-xdpi="96"
       inkscape:export-ydpi="96" />
    <rect
       style="opacity:1;fill:#000000;fill-opacity:1;stroke:none;stroke-width:0.31322035;stroke-miterlimit:4;stroke-dasharray:none;stroke-opacity:1"
       id="rect911-6-3-3-7"
       width="67.855995"
       height="6.6145883"
       x="550.33984"
       y="97.871719"
       transform="rotate(31.564666)"
       inkscape:export-xdpi="96"
       inkscape:export-ydpi="96" />
    <path
       style="opacity:1;fill:#710f0f;fill-opacity:1;stroke:none;stroke-width:0.27143225;stroke-miterlimit:4;stroke-dasharray:none;stroke-opacity:1"
       d="m 404.37418,527.77507 71.08851,0.0247 -32.5484,-62.75738 -0.006,0.009 a 81.16094,51.59375 31.56467 0 1 1.4087,43.99221 81.16094,51.59375 31.56467 0 1 -39.86955,18.61144 z"
       id="path886-8-1-6-6-2"
       inkscape:connector-curvature="0"
       inkscape:export-xdpi="96"
       inkscape:export-ydpi="96" />
    <path
       style="opacity:1;fill:#710f0f;fill-opacity:1;stroke:none;stroke-width:0.28738764;stroke-miterlimit:4;stroke-dasharray:none;stroke-opacity:1"
       d="m 348.71375,510.84863 a 81.16094,51.59375 31.56467 0 0 95.63779,-1.77455 81.16094,51.59375 31.56467 0 0 -42.14594,-86.44503 81.16094,51.59375 31.56467 0 0 -0.18911,-0.10797 l -6.26065,0.96022 a 75.375281,47.634792 31.56467 0 1 3.9978,2.28746 75.375281,47.634792 31.56467 0 1 39.28841,80.04314 75.375281,47.634792 31.56467 0 1 -89.15831,1.13133 75.375281,47.634792 31.56467 0 1 -3.12507,-2.05877 z"
       id="path821-6-1-1-2-5-8"
       inkscape:connector-curvature="0"
       inkscape:export-xdpi="96"
       inkscape:export-ydpi="96" />
    <path
       style="opacity:1;fill:#000000;fill-opacity:1;stroke:none;stroke-width:0.27143225;stroke-miterlimit:4;stroke-dasharray:none;stroke-opacity:1"
       d="m 475.49717,527.71003 -32.54841,-62.75739 -0.006,0.009 A 81.16094,51.59375 31.56467 0 1 444.5,508.66667 Z"
       id="path886-6-9-8-1-5-8"
       inkscape:connector-curvature="0"
       inkscape:export-xdpi="96"
       inkscape:export-ydpi="96" />
    <rect
       style="opacity:1;fill:#710f0f;fill-opacity:1;stroke:none;stroke-width:0.25394642;stroke-miterlimit:4;stroke-dasharray:none;stroke-opacity:1"
       id="rect879-2-8-4-1-0"
       width="2.6458333"
       height="40.216648"
       x="-610.83014"
       y="-220.98064"
       transform="rotate(-148.43533)"
       inkscape:export-xdpi="96"
       inkscape:export-ydpi="96" />
    <rect
       style="opacity:1;fill:#710f0f;fill-opacity:1;stroke:none;stroke-width:0.25394642;stroke-miterlimit:4;stroke-dasharray:none;stroke-opacity:1"
       id="rect879-5-6-3-4-1-49"
       width="2.6458333"
       height="40.216652"
       x="-599.43414"
       y="-220.98064"
       transform="rotate(-148.43533)"
       inkscape:export-xdpi="96"
       inkscape:export-ydpi="96" />
    <rect
       style="opacity:1;fill:#000000;fill-opacity:1;stroke:none;stroke-width:0.31322035;stroke-miterlimit:4;stroke-dasharray:none;stroke-opacity:1"
       id="rect911-9-6-1-3-6"
       width="67.855995"
       height="6.6145883"
       x="-586.61108"
       y="-205.37022"
       transform="rotate(-148.43533)"
       inkscape:export-xdpi="96"
       inkscape:export-ydpi="96" />
    <text
       xml:space="preserve"
       style="font-style:normal;font-weight:normal;font-size:10.58333302px;line-height:1.25;font-family:sans-serif;letter-spacing:0px;word-spacing:0px;fill:#000000;fill-opacity:1;stroke:none;stroke-width:0.26458332"
       x="142.55534"
       y="-6.0701456"
       id="text1403"><tspan
         sodipodi:role="line"
         id="tspan1401"
         x="142.55534"
         y="-6.0701456"
         style="stroke-width:0.26458332">#1b8c11</tspan></text>
    <text
       xml:space="preserve"
       style="font-style:normal;font-weight:normal;font-size:10.58333302px;line-height:1.25;font-family:sans-serif;letter-spacing:0px;word-spacing:0px;fill:#000000;fill-opacity:1;stroke:none;stroke-width:0.26458332"
       x="142.02081"
       y="-24.886463"
       id="text1407"><tspan
         sodipodi:role="line"
         id="tspan1405"
         x="142.02081"
         y="-24.886463"
         style="stroke-width:0.26458332">#42280a</tspan></text>
  </g>
</svg>
