<?xml version="1.0" encoding="UTF-8" standalone="no"?>
<!-- Created with Inkscape (http://www.inkscape.org/) -->

<svg
   xmlns:dc="http://purl.org/dc/elements/1.1/"
   xmlns:cc="http://creativecommons.org/ns#"
   xmlns:rdf="http://www.w3.org/1999/02/22-rdf-syntax-ns#"
   xmlns:svg="http://www.w3.org/2000/svg"
   xmlns="http://www.w3.org/2000/svg"
   xmlns:sodipodi="http://sodipodi.sourceforge.net/DTD/sodipodi-0.dtd"
   xmlns:inkscape="http://www.inkscape.org/namespaces/inkscape"
   width="210mm"
   height="297mm"
   viewBox="0 0 210 297"
   version="1.1"
   id="svg1415"
   inkscape:version="0.92.3 (2405546, 2018-03-11)"
   sodipodi:docname="logo-green.svg">
  <defs
     id="defs1409" />
  <sodipodi:namedview
     id="base"
     pagecolor="#ffffff"
     bordercolor="#666666"
     borderopacity="1.0"
     inkscape:pageopacity="0.0"
     inkscape:pageshadow="2"
     inkscape:zoom="0.49497475"
     inkscape:cx="61.983689"
     inkscape:cy="688.90354"
     inkscape:document-units="mm"
     inkscape:current-layer="layer1"
     showgrid="false"
     inkscape:window-width="1920"
     inkscape:window-height="1000"
     inkscape:window-x="-11"
     inkscape:window-y="-11"
     inkscape:window-maximized="1" />
  <metadata
     id="metadata1412">
    <rdf:RDF>
      <cc:Work
         rdf:about="">
        <dc:format>image/svg+xml</dc:format>
        <dc:type
           rdf:resource="http://purl.org/dc/dcmitype/StillImage" />
        <dc:title></dc:title>
      </cc:Work>
    </rdf:RDF>
  </metadata>
  <g
     inkscape:label="Layer 1"
     inkscape:groupmode="layer"
     id="layer1">
    <g
       id="g2056">
      <path
         inkscape:export-ydpi="96"
         inkscape:export-xdpi="96"
         inkscape:connector-curvature="0"
         id="path886-7-8"
         d="M 102.84409,0.871403 -0.64530405,0.83545996 46.738084,92.196425 l 0.006,-0.009 A 118.15261,75.109238 31.564666 0 1 44.695978,28.140016 118.15261,75.109238 31.564666 0 1 102.73734,1.0458108 Z"
         style="opacity:1;fill:#1b8c11;fill-opacity:1;stroke:none;stroke-width:0.27143198;stroke-miterlimit:4;stroke-dasharray:none;stroke-opacity:1" />
      <path
         inkscape:export-ydpi="96"
         inkscape:export-xdpi="96"
         inkscape:connector-curvature="0"
         id="path821-6-19-4"
         d="M 183.87354,25.512563 A 118.15261,75.109238 31.564666 0 0 44.645774,28.095945 118.15261,75.109238 31.564666 0 0 106.00102,153.9411 a 118.15261,75.109238 31.564666 0 0 0.2753,0.15706 l 9.11414,-1.39779 a 109.72996,69.345863 31.564666 0 1 -5.8199,-3.33011 109.72996,69.345863 31.564666 0 1 -57.195349,-116.525304 109.72996,69.345863 31.564666 0 1 129.795019,-1.646983 109.72996,69.345863 31.564666 0 1 4.54949,2.99713 z"
         style="opacity:1;fill:#1b8c11;fill-opacity:1;stroke:none;stroke-width:0.28738743;stroke-miterlimit:4;stroke-dasharray:none;stroke-opacity:1" />
      <path
         inkscape:export-ydpi="96"
         inkscape:export-xdpi="96"
         inkscape:connector-curvature="0"
         id="path886-6-4-9"
         d="M -0.69547739,0.96607307 46.687906,92.327167 l 0.006,-0.009 A 118.15261,75.109238 31.564666 0 1 44.42907,28.689521 Z"
         style="opacity:1;fill:#42280a;fill-opacity:1;stroke:none;stroke-width:0.27143198;stroke-miterlimit:4;stroke-dasharray:none;stroke-opacity:1" />
      <rect
         inkscape:export-ydpi="96"
         inkscape:export-xdpi="96"
         transform="rotate(31.564666)"
         y="-28.291519"
         x="102.62237"
         height="58.546696"
         width="3.8517587"
         id="rect879-57-3"
         style="opacity:1;fill:#1b8c11;fill-opacity:1;stroke:none;stroke-width:0.25394645;stroke-miterlimit:4;stroke-dasharray:none;stroke-opacity:1" />
      <rect
         inkscape:export-ydpi="96"
         inkscape:export-xdpi="96"
         transform="rotate(31.564666)"
         y="-28.291519"
         x="119.21238"
         height="58.546703"
         width="3.8517587"
         id="rect879-5-3-4"
         style="opacity:1;fill:#1b8c11;fill-opacity:1;stroke:none;stroke-width:0.25394645;stroke-miterlimit:4;stroke-dasharray:none;stroke-opacity:1" />
      <rect
         inkscape:export-ydpi="96"
         inkscape:export-xdpi="96"
         transform="rotate(31.564666)"
         y="-5.5661597"
         x="137.88005"
         height="9.629406"
         width="98.783485"
         id="rect911-6-3"
         style="opacity:1;fill:#42280a;fill-opacity:1;stroke:none;stroke-width:0.31322053;stroke-miterlimit:4;stroke-dasharray:none;stroke-opacity:1" />
      <path
         inkscape:export-ydpi="96"
         inkscape:export-xdpi="96"
         inkscape:connector-curvature="0"
         id="path886-8-1-6"
         d="m 101.0165,294.97411 103.48937,0.0343 -47.38343,-91.36101 -0.006,0.009 a 118.15261,75.109238 31.56467 0 1 2.05074,64.04301 118.15261,75.109238 31.56467 0 1 -58.04127,27.09421 z"
         style="opacity:1;fill:#1b8c11;fill-opacity:1;stroke:none;stroke-width:0.27143198;stroke-miterlimit:4;stroke-dasharray:none;stroke-opacity:1" />
      <path
         inkscape:export-ydpi="96"
         inkscape:export-xdpi="96"
         inkscape:connector-curvature="0"
         id="path821-6-1-1-2"
         d="M 19.98706,270.33275 A 118.15261,75.109238 31.56467 0 0 159.21487,267.74957 118.15261,75.109238 31.56467 0 0 97.859544,141.9044 118.15261,75.109238 31.56467 0 0 97.584267,141.74718 l -9.114154,1.39786 a 109.72996,69.345863 31.56467 0 1 5.819904,3.33012 109.72996,69.345863 31.56467 0 1 57.195343,116.52537 109.72996,69.345863 31.56467 0 1 -129.795053,1.64691 109.72996,69.345863 31.56467 0 1 -4.549415,-2.99702 z"
         style="opacity:1;fill:#1b8c11;fill-opacity:1;stroke:none;stroke-width:0.28738743;stroke-miterlimit:4;stroke-dasharray:none;stroke-opacity:1" />
      <path
         inkscape:export-ydpi="96"
         inkscape:export-xdpi="96"
         inkscape:connector-curvature="0"
         id="path886-6-9-8-1"
         d="m 204.55611,294.87941 -47.38341,-91.36114 -0.006,0.009 a 118.15261,75.109238 31.56467 0 1 2.26702,63.62501 z"
         style="opacity:1;fill:#42280a;fill-opacity:1;stroke:none;stroke-width:0.27143198;stroke-miterlimit:4;stroke-dasharray:none;stroke-opacity:1" />
      <rect
         inkscape:export-ydpi="96"
         inkscape:export-xdpi="96"
         transform="rotate(-148.43533)"
         y="-173.65382"
         x="-225.94073"
         height="58.546696"
         width="3.8517594"
         id="rect879-2-8-4"
         style="opacity:1;fill:#1b8c11;fill-opacity:1;stroke:none;stroke-width:0.25394645;stroke-miterlimit:4;stroke-dasharray:none;stroke-opacity:1" />
      <rect
         inkscape:export-ydpi="96"
         inkscape:export-xdpi="96"
         transform="rotate(-148.43533)"
         y="-173.65382"
         x="-209.35065"
         height="58.546703"
         width="3.8517594"
         id="rect879-5-6-3-4"
         style="opacity:1;fill:#1b8c11;fill-opacity:1;stroke:none;stroke-width:0.25394645;stroke-miterlimit:4;stroke-dasharray:none;stroke-opacity:1" />
      <rect
         inkscape:export-ydpi="96"
         inkscape:export-xdpi="96"
         transform="rotate(-148.43533)"
         y="-150.92825"
         x="-190.68301"
         height="9.6294041"
         width="98.783516"
         id="rect911-9-6-1"
         style="opacity:1;fill:#42280a;fill-opacity:1;stroke:none;stroke-width:0.31322026;stroke-miterlimit:4;stroke-dasharray:none;stroke-opacity:1" />
    </g>
    <text
       xml:space="preserve"
       style="font-style:normal;font-weight:normal;font-size:10.58333302px;line-height:1.25;font-family:sans-serif;letter-spacing:0px;word-spacing:0px;fill:#000000;fill-opacity:1;stroke:none;stroke-width:0.26458332"
       x="58.466396"
       y="-41.041458"
       id="text1403"><tspan
         sodipodi:role="line"
         id="tspan1401"
         x="58.466396"
         y="-41.041458"
         style="stroke-width:0.26458332">#1b8c11</tspan></text>
    <text
       xml:space="preserve"
       style="font-style:normal;font-weight:normal;font-size:10.58333302px;line-height:1.25;font-family:sans-serif;letter-spacing:0px;word-spacing:0px;fill:#000000;fill-opacity:1;stroke:none;stroke-width:0.26458332"
       x="57.931866"
       y="-59.857773"
       id="text1407"><tspan
         sodipodi:role="line"
         id="tspan1405"
         x="57.931866"
         y="-59.857773"
         style="stroke-width:0.26458332">#42280a</tspan></text>
  </g>
</svg>
