<?xml version="1.0" standalone="no"?>
<!DOCTYPE svg PUBLIC "-//W3C//DTD SVG 20010904//EN"
 "http://www.w3.org/TR/2001/REC-SVG-20010904/DTD/svg10.dtd">
<svg version="1.0" xmlns="http://www.w3.org/2000/svg"
 width="283.000000pt" height="283.000000pt" viewBox="0 0 283.000000 283.000000"
 preserveAspectRatio="xMidYMid meet">
<metadata>
Created by potrace 1.11, written by Peter Selinger 2001-2013
</metadata>
<g transform="translate(0.000000,283.000000) scale(0.100000,-0.100000)"
fill="#000000" stroke="none">
<path d="M600 2101 l0 -729 33 -25 c17 -14 41 -33 52 -43 11 -11 65 -57 120
-104 55 -47 102 -87 105 -91 3 -3 82 -70 175 -149 94 -79 172 -146 175 -150 3
-3 37 -32 75 -65 39 -33 73 -64 76 -69 4 -4 25 17 48 48 22 31 59 81 82 111
22 31 39 60 37 65 -2 5 -43 43 -93 85 -49 42 -115 98 -145 125 -30 26 -120
103 -200 171 -80 68 -150 128 -156 134 -7 5 -36 31 -65 57 l-54 47 1 508 0
508 677 3 677 2 0 145 0 145 -810 0 -810 0 0 -729z"/>
<path d="M1320 2053 c-41 -59 -76 -110 -78 -114 -2 -5 115 -109 398 -353 153
-131 251 -216 279 -242 l34 -32 -1 -488 c0 -269 -1 -499 -1 -511 l-1 -23 -672
-2 -673 -3 0 -142 0 -143 806 0 807 0 -1 730 c0 726 0 729 -21 747 -96 83
-400 344 -427 368 -20 17 -109 93 -198 170 -89 77 -165 141 -169 142 -4 1 -41
-46 -82 -104z"/>
</g>
</svg>
